<?xml version="1.0" encoding="UTF-8" standalone="no"?>
<!-- Created with Inkscape (http://www.inkscape.org/) -->

<svg
   width="3.5in"
   height="2.0in"
   viewBox="0 0 3.5 2.0"
   id="SVGRoot"
   version="1.1"
   inkscape:version="1.3.2 (1:1.3.2+202311252150+091e20ef0f)"
   sodipodi:docname="Tproof3.svg"
   xmlns:inkscape="http://www.inkscape.org/namespaces/inkscape"
   xmlns:sodipodi="http://sodipodi.sourceforge.net/DTD/sodipodi-0.dtd"
   xmlns="http://www.w3.org/2000/svg"
   xmlns:svg="http://www.w3.org/2000/svg"
   xmlns:ns7="http://www.iki.fi/pav/software/textext/">
  <sodipodi:namedview
     inkscape:document-units="in"
     inkscape:zoom="3.4004359"
     inkscape:cx="168.06669"
     inkscape:cy="72.784786"
     id="namedview1"
     pagecolor="#ffffff"
     bordercolor="#666666"
     borderopacity="1.0"
     inkscape:showpageshadow="2"
     inkscape:pageopacity="0.0"
     inkscape:pagecheckerboard="0"
     inkscape:deskcolor="#d1d1d1"
     inkscape:window-width="1850"
     inkscape:window-height="1009"
     inkscape:window-x="0"
     inkscape:window-y="0"
     inkscape:window-maximized="1"
     inkscape:current-layer="layer1" />
  <defs
     id="defs1">
    <marker
       style="overflow:visible"
       id="DartArrow"
       refX="0"
       refY="0"
       orient="auto-start-reverse"
       inkscape:stockid="Dart arrow"
       markerWidth="1"
       markerHeight="1"
       viewBox="0 0 1 1"
       inkscape:isstock="true"
       inkscape:collect="always"
       preserveAspectRatio="xMidYMid">
      <path
         style="fill:context-stroke;fill-rule:evenodd;stroke:none"
         d="M 0,0 5,-5 -12.5,0 5,5 Z"
         transform="scale(-0.5)"
         id="path6" />
    </marker>
  </defs>
  <g
     inkscape:label="Layer 1"
     inkscape:groupmode="layer"
     id="layer1">
    <ellipse
       style="fill:none;stroke:#000000;stroke-width:0.00694445;stroke-linecap:round;stroke-linejoin:round"
       id="path1"
       cx="1.5037972"
       cy="0.93638706"
       rx="0.958"
       ry="0.75199997" />
    <ellipse
       style="fill:none;stroke:#000000;stroke-width:0.00694445;stroke-linecap:round;stroke-linejoin:round"
       id="path2"
       cx="2.9761565"
       cy="0.33338624"
       rx="0.39684293"
       ry="0.21371318" />
    <ellipse
       style="fill:none;stroke:#000000;stroke-width:0.00694445;stroke-linecap:round;stroke-linejoin:round"
       id="path3"
       cx="2.8367612"
       cy="1.5974987"
       rx="0.36834779"
       ry="0.17643733" />
    <path
       style="fill:none;stroke:#000000;stroke-width:0.00843897px;stroke-linecap:butt;stroke-linejoin:miter;stroke-opacity:1;marker-end:url(#DartArrow)"
       d="M 2.3869412,0.64865137 2.6267395,0.49978038"
       id="path4" />
    <path
       style="fill:none;stroke:#000000;stroke-width:0.00900607px;stroke-linecap:butt;stroke-linejoin:miter;stroke-opacity:1;marker-end:url(#DartArrow)"
       d="M 2.3076915,1.3386639 2.4756532,1.4851924"
       id="path5" />
    <g
       transform="matrix(0.0218585 0 0 0.0218585 0.911724 0.850004)"
       ns7:version="1.10.2"
       ns7:texconverter="pdflatex"
       ns7:pdfconverter="inkscape"
       ns7:text="$\\logicnot(\\logicbox \\phi \\rightarrow \\phi)$"
       ns7:preamble="/home/mei/Documents/MagicalModality/mystyle.sty"
       ns7:scale="1.0"
       ns7:alignment="middle center"
       ns7:stroke-to-path="0"
       id="g6788"
       ns7:jacobian_sqrt="0.0138889">
      <defs
         id="id-2fb3fb20-710b-4fe8-b1f0-e4787ed4f4bf">
        <g
           id="id-1378213a-cf54-49c6-a39f-10783ca51ffb">
          <symbol
             overflow="visible"
             id="id-086f5655-c51e-4d51-a27b-341141b26b44">
            <path
               style="stroke:none;stroke-width:0"
               d=""
               id="id-3f8a5d2b-c66d-4a51-92f8-8dc86ec48cb8" />
          </symbol>
          <symbol
             overflow="visible"
             id="id-539ab6ef-cadc-453d-a6af-371c2ff5a2e0">
            <path
               style="stroke:none;stroke-width:0"
               d="m 7.203125,-3.328125 c 0,-0.21875 -0.0625,-0.328125 -0.140625,-0.328125 -0.046875,0 -0.140625,0.078125 -0.140625,0.265625 -0.046875,0.953125 -0.703125,1.5 -1.40625,1.5 -0.625,0 -1.09375,-0.421875 -1.59375,-0.84375 -0.5,-0.46875 -1.015625,-0.921875 -1.703125,-0.921875 -1.078125,0 -1.671875,1.09375 -1.671875,2 0,0.328125 0.125,0.328125 0.140625,0.328125 0.109375,0 0.140625,-0.203125 0.140625,-0.234375 0.046875,-1.09375 0.78125,-1.53125 1.390625,-1.53125 0.625,0 1.109375,0.421875 1.59375,0.84375 0.515625,0.46875 1.03125,0.921875 1.703125,0.921875 1.09375,0 1.6875,-1.09375 1.6875,-2 z m 0,0"
               id="id-4faae112-08e9-492a-b08c-2ad837734bd4" />
          </symbol>
          <symbol
             overflow="visible"
             id="id-8ff26d02-cc08-4d7f-8fb3-c402f4139409">
            <path
               style="stroke:none;stroke-width:0"
               d="M 8.3125,-2.296875 C 7.765625,-1.875 7.5,-1.46875 7.421875,-1.328125 c -0.453125,0.6875 -0.53125,1.3125 -0.53125,1.3125 0,0.125 0.125,0.125 0.203125,0.125 C 7.25,0.109375 7.265625,0.09375 7.3125,-0.09375 7.53125,-1.0625 8.125,-1.90625 9.25,-2.359375 9.375,-2.40625 9.40625,-2.421875 9.40625,-2.5 c 0,-0.0625 -0.0625,-0.09375 -0.078125,-0.109375 C 8.875,-2.765625 7.671875,-3.265625 7.296875,-4.9375 7.265625,-5.0625 7.25,-5.09375 7.09375,-5.09375 c -0.078125,0 -0.203125,0 -0.203125,0.125 0,0.015625 0.09375,0.640625 0.5,1.3125 0.203125,0.296875 0.5,0.640625 0.921875,0.96875 H 0.90625 c -0.171875,0 -0.359375,0 -0.359375,0.1875 0,0.203125 0.1875,0.203125 0.359375,0.203125 z m 0,0"
               id="id-f68f390a-c31b-4b9d-a302-3a9122cee44e" />
          </symbol>
          <symbol
             overflow="visible"
             id="id-c0d4977c-2ae6-4966-8116-3e9cd2723f92">
            <path
               style="stroke:none;stroke-width:0"
               d=""
               id="id-d02ab348-f6be-4834-a983-1cae5f959044" />
          </symbol>
          <symbol
             overflow="visible"
             id="id-562bc443-74db-47dd-95b2-a9cc90a6cfbf">
            <path
               style="stroke:none;stroke-width:0"
               d="m 3.296875,2.390625 c 0,-0.03125 0,-0.046875 -0.171875,-0.21875 C 1.890625,0.921875 1.5625,-0.96875 1.5625,-2.5 c 0,-1.734375 0.375,-3.46875 1.609375,-4.703125 0.125,-0.125 0.125,-0.140625 0.125,-0.171875 0,-0.078125 -0.03125,-0.109375 -0.09375,-0.109375 -0.109375,0 -1,0.6875 -1.59375,1.953125 -0.5,1.09375 -0.625,2.203125 -0.625,3.03125 0,0.78125 0.109375,1.984375 0.65625,3.125 C 2.25,1.84375 3.09375,2.5 3.203125,2.5 c 0.0625,0 0.09375,-0.03125 0.09375,-0.109375 z m 0,0"
               id="id-b607e62b-b6ff-4958-b9d0-d582e2cb6d88" />
          </symbol>
          <symbol
             overflow="visible"
             id="id-7a007760-6e05-4d27-8d09-77ceaf88241c">
            <path
               style="stroke:none;stroke-width:0"
               d="m 2.875,-2.5 c 0,-0.765625 -0.109375,-1.96875 -0.65625,-3.109375 -0.59375,-1.21875 -1.453125,-1.875 -1.546875,-1.875 -0.0625,0 -0.109375,0.046875 -0.109375,0.109375 0,0.03125 0,0.046875 0.1875,0.234375 0.984375,0.984375 1.546875,2.5625 1.546875,4.640625 0,1.71875 -0.359375,3.46875 -1.59375,4.71875 C 0.5625,2.34375 0.5625,2.359375 0.5625,2.390625 0.5625,2.453125 0.609375,2.5 0.671875,2.5 0.765625,2.5 1.671875,1.8125 2.25,0.546875 2.765625,-0.546875 2.875,-1.65625 2.875,-2.5 Z m 0,0"
               id="id-349ef804-1ae8-408c-8b24-502889414e7e" />
          </symbol>
          <symbol
             overflow="visible"
             id="id-92c025e7-4498-498f-a18c-8a72d537bdff">
            <path
               style="stroke:none;stroke-width:0"
               d=""
               id="id-8b941875-d739-4fd3-8b3d-d9d6cd0c78b7" />
          </symbol>
          <symbol
             overflow="visible"
             id="id-0a033d87-0054-43f3-8700-ed9be9c79de1">
            <path
               style="stroke:none;stroke-width:0"
               d="m 7.1875,-6.5 c 0,-0.3125 -0.03125,-0.34375 -0.34375,-0.34375 h -5.9375 c -0.3125,0 -0.34375,0.03125 -0.34375,0.34375 v 6.140625 C 0.5625,-0.046875 0.59375,0 0.921875,0 h 5.90625 C 7.15625,0 7.1875,-0.03125 7.1875,-0.34375 Z M 0.953125,-6.453125 H 6.78125 V -0.40625 H 0.953125 Z m 0,0"
               id="id-be3f7082-70df-49df-93fd-d17d5da188bf" />
          </symbol>
          <symbol
             overflow="visible"
             id="id-78293054-172a-4ea6-9892-2e58bb3366de">
            <path
               style="stroke:none;stroke-width:0"
               d=""
               id="id-86318f72-2077-46df-a1f6-4eb8ec43d5e6" />
          </symbol>
          <symbol
             overflow="visible"
             id="id-48c9c611-62d0-4ff6-b263-7bd9ef80c6bb">
            <path
               style="stroke:none;stroke-width:0"
               d="M 1.6875,1.6875 C 1.65625,1.828125 1.640625,1.84375 1.640625,1.890625 c 0,0.21875 0.1875,0.28125 0.296875,0.28125 0.046875,0 0.265625,-0.03125 0.359375,-0.265625 C 2.328125,1.828125 2.375,1.5 2.65625,0.09375 c 0.078125,0 0.15625,0.015625 0.328125,0.015625 1.65625,0 3.1875,-1.5625 3.1875,-3.140625 0,-0.78125 -0.390625,-1.375 -1.140625,-1.375 -1.4375,0 -2.046875,1.9375 -2.640625,3.875 C 1.3125,-0.734375 0.75,-1.28125 0.75,-2 c 0,-0.28125 0.234375,-1.375 0.828125,-2.0625 0.09375,-0.09375 0.09375,-0.109375 0.09375,-0.140625 0,-0.03125 -0.03125,-0.09375 -0.125,-0.09375 -0.28125,0 -1.046875,1.453125 -1.046875,2.40625 0,0.9375 0.65625,1.65625 1.71875,1.90625 z m 1.390625,-2.15625 c -0.09375,0 -0.109375,0 -0.1875,-0.015625 -0.125,0 -0.125,0 -0.125,-0.03125 0,-0.015625 0.171875,-0.9375 0.1875,-1.078125 0.3125,-1.28125 1.09375,-2.234375 1.984375,-2.234375 0.6875,0 0.953125,0.53125 0.953125,1.015625 0,1.125 -1.28125,2.34375 -2.8125,2.34375 z m 0,0"
               id="id-30a57d39-e4e5-4b89-92d4-ab067436cc06" />
          </symbol>
        </g>
      </defs>
      <g
         id="id-24ff91d3-3838-4070-96c3-443ce7b096c4"
         transform="translate(-69.4909, -56.4786)">
        <g
           transform="matrix(0.97947205,0,0,0.97947205,78.075165,48.835708)"
           ns7:version="1.10.2"
           ns7:texconverter="pdflatex"
           ns7:pdfconverter="inkscape"
           ns7:text="$\\logicbox \\phi$"
           ns7:preamble="/home/mei/Documents/MagicalModality/mystyle.sty"
           ns7:scale="1.0"
           ns7:alignment="middle center"
           ns7:stroke-to-path="0"
           ns7:inkscapeversion="1.3.2"
           id="g1906"
           ns7:jacobian_sqrt="0.6354">
          <defs
             id="id-b02abdbb-5915-4ef5-8b5e-2e6ccbb657f3">
            <g
               id="id-ebce10b4-8950-4ecf-bff8-da33ec6741b6">
              <symbol
                 overflow="visible"
                 id="id-ceee77bb-d90d-4861-becb-d30fa534634a">
                <path
                   style="stroke:none;stroke-width:0"
                   d=""
                   id="id-50031caa-b78a-4733-bfd3-11a35e1bf277" />
              </symbol>
              <symbol
                 overflow="visible"
                 id="id-ff461dfd-fbd6-4071-bc34-73666d33dc2f">
                <path
                   style="stroke:none;stroke-width:0"
                   d="m 7.1875,-6.5 c 0,-0.3125 -0.03125,-0.34375 -0.34375,-0.34375 h -5.9375 c -0.3125,0 -0.34375,0.03125 -0.34375,0.34375 v 6.140625 C 0.5625,-0.046875 0.59375,0 0.921875,0 h 5.90625 C 7.15625,0 7.1875,-0.03125 7.1875,-0.34375 Z M 0.953125,-6.453125 H 6.78125 V -0.40625 H 0.953125 Z m 0,0"
                   id="id-e7c8a3eb-aed8-460b-ba76-e0c272494076" />
              </symbol>
              <symbol
                 overflow="visible"
                 id="id-53f4ebde-e4c1-4954-8828-7170abba00f2">
                <path
                   style="stroke:none;stroke-width:0"
                   d=""
                   id="id-8e275480-de8b-4e4b-bea4-86ef055d8cb8" />
              </symbol>
              <symbol
                 overflow="visible"
                 id="id-9a27c787-c58b-42d0-9e57-7e6c4591b300">
                <path
                   style="stroke:none;stroke-width:0"
                   d="M 1.6875,1.6875 C 1.65625,1.828125 1.640625,1.84375 1.640625,1.890625 c 0,0.21875 0.1875,0.28125 0.296875,0.28125 0.046875,0 0.265625,-0.03125 0.359375,-0.265625 C 2.328125,1.828125 2.375,1.5 2.65625,0.09375 c 0.078125,0 0.15625,0.015625 0.328125,0.015625 1.65625,0 3.1875,-1.5625 3.1875,-3.140625 0,-0.78125 -0.390625,-1.375 -1.140625,-1.375 -1.4375,0 -2.046875,1.9375 -2.640625,3.875 C 1.3125,-0.734375 0.75,-1.28125 0.75,-2 c 0,-0.28125 0.234375,-1.375 0.828125,-2.0625 0.09375,-0.09375 0.09375,-0.109375 0.09375,-0.140625 0,-0.03125 -0.03125,-0.09375 -0.125,-0.09375 -0.28125,0 -1.046875,1.453125 -1.046875,2.40625 0,0.9375 0.65625,1.65625 1.71875,1.90625 z m 1.390625,-2.15625 c -0.09375,0 -0.109375,0 -0.1875,-0.015625 -0.125,0 -0.125,0 -0.125,-0.03125 0,-0.015625 0.171875,-0.9375 0.1875,-1.078125 0.3125,-1.28125 1.09375,-2.234375 1.984375,-2.234375 0.6875,0 0.953125,0.53125 0.953125,1.015625 0,1.125 -1.28125,2.34375 -2.8125,2.34375 z m 0,0"
                   id="id-1697ffff-9a3f-4d49-b595-0a3d7918661b" />
              </symbol>
            </g>
          </defs>
          <g
             id="id-37cef75d-4662-4ec6-ab1a-c7c293cdc20d"
             transform="translate(-69.5065,-57.1193)">
            <g
               style="fill:#000000;fill-opacity:1"
               id="id-54d2b4df-5c58-47c3-8ccc-92124785c1a7">
              <g
                 transform="translate(68.944,63.963)"
                 id="g8685">
                <path
                   style="stroke:none;stroke-width:0"
                   d="m 7.1875,-6.5 c 0,-0.3125 -0.03125,-0.34375 -0.34375,-0.34375 h -5.9375 c -0.3125,0 -0.34375,0.03125 -0.34375,0.34375 v 6.140625 C 0.5625,-0.046875 0.59375,0 0.921875,0 h 5.90625 C 7.15625,0 7.1875,-0.03125 7.1875,-0.34375 Z M 0.953125,-6.453125 H 6.78125 V -0.40625 H 0.953125 Z m 0,0"
                   id="id-dfc9fe60-3bfa-4262-b4d7-925de9605e9d" />
              </g>
            </g>
            <g
               style="fill:#000000;fill-opacity:1"
               id="id-43b499ac-4f07-416e-b770-fe924540dfd9">
              <g
                 transform="translate(76.693,63.963)"
                 id="g711">
                <path
                   style="stroke:none;stroke-width:0"
                   d="M 1.6875,1.6875 C 1.65625,1.828125 1.640625,1.84375 1.640625,1.890625 c 0,0.21875 0.1875,0.28125 0.296875,0.28125 0.046875,0 0.265625,-0.03125 0.359375,-0.265625 C 2.328125,1.828125 2.375,1.5 2.65625,0.09375 c 0.078125,0 0.15625,0.015625 0.328125,0.015625 1.65625,0 3.1875,-1.5625 3.1875,-3.140625 0,-0.78125 -0.390625,-1.375 -1.140625,-1.375 -1.4375,0 -2.046875,1.9375 -2.640625,3.875 C 1.3125,-0.734375 0.75,-1.28125 0.75,-2 c 0,-0.28125 0.234375,-1.375 0.828125,-2.0625 0.09375,-0.09375 0.09375,-0.109375 0.09375,-0.140625 0,-0.03125 -0.03125,-0.09375 -0.125,-0.09375 -0.28125,0 -1.046875,1.453125 -1.046875,2.40625 0,0.9375 0.65625,1.65625 1.71875,1.90625 z m 1.390625,-2.15625 c -0.09375,0 -0.109375,0 -0.1875,-0.015625 -0.125,0 -0.125,0 -0.125,-0.03125 0,-0.015625 0.171875,-0.9375 0.1875,-1.078125 0.3125,-1.28125 1.09375,-2.234375 1.984375,-2.234375 0.6875,0 0.953125,0.53125 0.953125,1.015625 0,1.125 -1.28125,2.34375 -2.8125,2.34375 z m 0,0"
                   id="id-7d503f1d-7f14-46f3-9912-8149d01b3970" />
              </g>
            </g>
          </g>
        </g>
        <g
           transform="matrix(0.97832772,0,0,0.97832772,106.14601,70.228217)"
           ns7:version="1.10.2"
           ns7:texconverter="pdflatex"
           ns7:pdfconverter="inkscape"
           ns7:text="$\\logicnot \\phi$"
           ns7:preamble="/home/mei/Documents/MagicalModality/mystyle.sty"
           ns7:scale="1.0"
           ns7:alignment="middle center"
           ns7:stroke-to-path="0"
           ns7:inkscapeversion="1.3.2"
           id="g7129"
           ns7:jacobian_sqrt="0.6354">
          <defs
             id="id-3f2b2bc8-7f9f-4dfc-8e69-a82e4ae39e6d">
            <g
               id="id-fa076ebe-e7ba-43b7-b25a-0b19a3696ee7">
              <symbol
                 overflow="visible"
                 id="id-6e620ece-8d21-4e52-835f-48d3e3e8af79">
                <path
                   style="stroke:none;stroke-width:0"
                   d=""
                   id="id-1f58681e-8034-48d3-a88a-6f518b699397" />
              </symbol>
              <symbol
                 overflow="visible"
                 id="id-712b06bd-3688-4c2c-92cc-22297476efe7">
                <path
                   style="stroke:none;stroke-width:0"
                   d="m 7.203125,-3.328125 c 0,-0.21875 -0.0625,-0.328125 -0.140625,-0.328125 -0.046875,0 -0.140625,0.078125 -0.140625,0.265625 -0.046875,0.953125 -0.703125,1.5 -1.40625,1.5 -0.625,0 -1.09375,-0.421875 -1.59375,-0.84375 -0.5,-0.46875 -1.015625,-0.921875 -1.703125,-0.921875 -1.078125,0 -1.671875,1.09375 -1.671875,2 0,0.328125 0.125,0.328125 0.140625,0.328125 0.109375,0 0.140625,-0.203125 0.140625,-0.234375 0.046875,-1.09375 0.78125,-1.53125 1.390625,-1.53125 0.625,0 1.109375,0.421875 1.59375,0.84375 0.515625,0.46875 1.03125,0.921875 1.703125,0.921875 1.09375,0 1.6875,-1.09375 1.6875,-2 z m 0,0"
                   id="id-ee42e0e0-da5a-437d-b5f4-24081baca98e" />
              </symbol>
              <symbol
                 overflow="visible"
                 id="id-2b993870-1d78-4c7f-997e-a05bcc1490b1">
                <path
                   style="stroke:none;stroke-width:0"
                   d=""
                   id="id-ba244a75-5580-47e4-9a53-4752bcbd4e39" />
              </symbol>
              <symbol
                 overflow="visible"
                 id="id-a955014f-6959-4d6c-8313-aeaa8675bf6b">
                <path
                   style="stroke:none;stroke-width:0"
                   d="M 1.6875,1.6875 C 1.65625,1.828125 1.640625,1.84375 1.640625,1.890625 c 0,0.21875 0.1875,0.28125 0.296875,0.28125 0.046875,0 0.265625,-0.03125 0.359375,-0.265625 C 2.328125,1.828125 2.375,1.5 2.65625,0.09375 c 0.078125,0 0.15625,0.015625 0.328125,0.015625 1.65625,0 3.1875,-1.5625 3.1875,-3.140625 0,-0.78125 -0.390625,-1.375 -1.140625,-1.375 -1.4375,0 -2.046875,1.9375 -2.640625,3.875 C 1.3125,-0.734375 0.75,-1.28125 0.75,-2 c 0,-0.28125 0.234375,-1.375 0.828125,-2.0625 0.09375,-0.09375 0.09375,-0.109375 0.09375,-0.140625 0,-0.03125 -0.03125,-0.09375 -0.125,-0.09375 -0.28125,0 -1.046875,1.453125 -1.046875,2.40625 0,0.9375 0.65625,1.65625 1.71875,1.90625 z m 1.390625,-2.15625 c -0.09375,0 -0.109375,0 -0.1875,-0.015625 -0.125,0 -0.125,0 -0.125,-0.03125 0,-0.015625 0.171875,-0.9375 0.1875,-1.078125 0.3125,-1.28125 1.09375,-2.234375 1.984375,-2.234375 0.6875,0 0.953125,0.53125 0.953125,1.015625 0,1.125 -1.28125,2.34375 -2.8125,2.34375 z m 0,0"
                   id="id-d4a9c15d-b5a6-4473-a987-4cca468f6230" />
              </symbol>
            </g>
          </defs>
          <g
             id="id-d36157af-7279-4b61-b4ed-bf53c24568b0"
             transform="translate(-69.4909,-59.5568)">
            <g
               style="fill:#000000;fill-opacity:1"
               id="id-56b75e12-51fc-43d2-9c07-46277e2328e4">
              <g
                 transform="translate(68.944,63.963)"
                 id="g5338">
                <path
                   style="stroke:none;stroke-width:0"
                   d="m 7.203125,-3.328125 c 0,-0.21875 -0.0625,-0.328125 -0.140625,-0.328125 -0.046875,0 -0.140625,0.078125 -0.140625,0.265625 -0.046875,0.953125 -0.703125,1.5 -1.40625,1.5 -0.625,0 -1.09375,-0.421875 -1.59375,-0.84375 -0.5,-0.46875 -1.015625,-0.921875 -1.703125,-0.921875 -1.078125,0 -1.671875,1.09375 -1.671875,2 0,0.328125 0.125,0.328125 0.140625,0.328125 0.109375,0 0.140625,-0.203125 0.140625,-0.234375 0.046875,-1.09375 0.78125,-1.53125 1.390625,-1.53125 0.625,0 1.109375,0.421875 1.59375,0.84375 0.515625,0.46875 1.03125,0.921875 1.703125,0.921875 1.09375,0 1.6875,-1.09375 1.6875,-2 z m 0,0"
                   id="id-82ff0675-5a7f-4c0b-9834-8cb179944bce" />
              </g>
            </g>
            <g
               style="fill:#000000;fill-opacity:1"
               id="id-ef90abe4-56b3-45ab-9a04-e1fd09c28e94">
              <g
                 transform="translate(76.693,63.963)"
                 id="g546">
                <path
                   style="stroke:none;stroke-width:0"
                   d="M 1.6875,1.6875 C 1.65625,1.828125 1.640625,1.84375 1.640625,1.890625 c 0,0.21875 0.1875,0.28125 0.296875,0.28125 0.046875,0 0.265625,-0.03125 0.359375,-0.265625 C 2.328125,1.828125 2.375,1.5 2.65625,0.09375 c 0.078125,0 0.15625,0.015625 0.328125,0.015625 1.65625,0 3.1875,-1.5625 3.1875,-3.140625 0,-0.78125 -0.390625,-1.375 -1.140625,-1.375 -1.4375,0 -2.046875,1.9375 -2.640625,3.875 C 1.3125,-0.734375 0.75,-1.28125 0.75,-2 c 0,-0.28125 0.234375,-1.375 0.828125,-2.0625 0.09375,-0.09375 0.09375,-0.109375 0.09375,-0.140625 0,-0.03125 -0.03125,-0.09375 -0.125,-0.09375 -0.28125,0 -1.046875,1.453125 -1.046875,2.40625 0,0.9375 0.65625,1.65625 1.71875,1.90625 z m 1.390625,-2.15625 c -0.09375,0 -0.109375,0 -0.1875,-0.015625 -0.125,0 -0.125,0 -0.125,-0.03125 0,-0.015625 0.171875,-0.9375 0.1875,-1.078125 0.3125,-1.28125 1.09375,-2.234375 1.984375,-2.234375 0.6875,0 0.953125,0.53125 0.953125,1.015625 0,1.125 -1.28125,2.34375 -2.8125,2.34375 z m 0,0"
                   id="id-814e3bed-bba3-477b-bd10-40222b3254b1" />
              </g>
            </g>
          </g>
        </g>
      </g>
    </g>
    <g
       transform="matrix(0.03155923,0,0,0.03155923,2.8949052,0.22184651)"
       ns7:version="1.10.2"
       ns7:texconverter="pdflatex"
       ns7:pdfconverter="inkscape"
       ns7:text="$\\phi$"
       ns7:preamble="/home/mei/Documents/MagicalModality/mystyle.sty"
       ns7:scale="1.0"
       ns7:alignment="middle center"
       ns7:stroke-to-path="0"
       ns7:inkscapeversion="1.3.2"
       id="g5541"
       ns7:jacobian_sqrt="0.0138889">
      <defs
         id="id-85eba1a9-5953-4e4c-8573-23dd42d671d9">
        <g
           id="id-31c70557-b018-42fc-8bf8-d4a3e8591cbc">
          <symbol
             overflow="visible"
             id="id-3b18337b-3bb4-433b-a507-7f7aa1667801">
            <path
               style="stroke:none;stroke-width:0"
               d=""
               id="id-fc2ade7c-29bc-4f62-985e-08e01c767289" />
          </symbol>
          <symbol
             overflow="visible"
             id="id-3bb6a261-e4bd-45fb-9229-3b93f976b1cb">
            <path
               style="stroke:none;stroke-width:0"
               d="M 1.6875,1.6875 C 1.65625,1.828125 1.640625,1.84375 1.640625,1.890625 c 0,0.21875 0.1875,0.28125 0.296875,0.28125 0.046875,0 0.265625,-0.03125 0.359375,-0.265625 C 2.328125,1.828125 2.375,1.5 2.65625,0.09375 c 0.078125,0 0.15625,0.015625 0.328125,0.015625 1.65625,0 3.1875,-1.5625 3.1875,-3.140625 0,-0.78125 -0.390625,-1.375 -1.140625,-1.375 -1.4375,0 -2.046875,1.9375 -2.640625,3.875 C 1.3125,-0.734375 0.75,-1.28125 0.75,-2 c 0,-0.28125 0.234375,-1.375 0.828125,-2.0625 0.09375,-0.09375 0.09375,-0.109375 0.09375,-0.140625 0,-0.03125 -0.03125,-0.09375 -0.125,-0.09375 -0.28125,0 -1.046875,1.453125 -1.046875,2.40625 0,0.9375 0.65625,1.65625 1.71875,1.90625 z m 1.390625,-2.15625 c -0.09375,0 -0.109375,0 -0.1875,-0.015625 -0.125,0 -0.125,0 -0.125,-0.03125 0,-0.015625 0.171875,-0.9375 0.1875,-1.078125 0.3125,-1.28125 1.09375,-2.234375 1.984375,-2.234375 0.6875,0 0.953125,0.53125 0.953125,1.015625 0,1.125 -1.28125,2.34375 -2.8125,2.34375 z m 0,0"
               id="id-9d3a6d7a-fd7c-4732-8df0-aff827d4011a" />
          </symbol>
        </g>
      </defs>
      <g
         id="id-0aca0a24-a0e2-4204-a42d-38ef04e434e9"
         transform="translate(-69.444,-59.5568)">
        <g
           style="fill:#000000;fill-opacity:1"
           id="id-176ba68a-6003-4c69-9815-e5642a51580c">
          <g
             transform="translate(68.944,63.963)"
             id="g3458">
            <path
               style="stroke:none;stroke-width:0"
               d="M 1.6875,1.6875 C 1.65625,1.828125 1.640625,1.84375 1.640625,1.890625 c 0,0.21875 0.1875,0.28125 0.296875,0.28125 0.046875,0 0.265625,-0.03125 0.359375,-0.265625 C 2.328125,1.828125 2.375,1.5 2.65625,0.09375 c 0.078125,0 0.15625,0.015625 0.328125,0.015625 1.65625,0 3.1875,-1.5625 3.1875,-3.140625 0,-0.78125 -0.390625,-1.375 -1.140625,-1.375 -1.4375,0 -2.046875,1.9375 -2.640625,3.875 C 1.3125,-0.734375 0.75,-1.28125 0.75,-2 c 0,-0.28125 0.234375,-1.375 0.828125,-2.0625 0.09375,-0.09375 0.09375,-0.109375 0.09375,-0.140625 0,-0.03125 -0.03125,-0.09375 -0.125,-0.09375 -0.28125,0 -1.046875,1.453125 -1.046875,2.40625 0,0.9375 0.65625,1.65625 1.71875,1.90625 z m 1.390625,-2.15625 c -0.09375,0 -0.109375,0 -0.1875,-0.015625 -0.125,0 -0.125,0 -0.125,-0.03125 0,-0.015625 0.171875,-0.9375 0.1875,-1.078125 0.3125,-1.28125 1.09375,-2.234375 1.984375,-2.234375 0.6875,0 0.953125,0.53125 0.953125,1.015625 0,1.125 -1.28125,2.34375 -2.8125,2.34375 z m 0,0"
               id="id-53b75781-c6a0-4f8b-80ce-c83bca63f67c" />
          </g>
        </g>
      </g>
    </g>
    <g
       transform="matrix(0.03155923,0,0,0.03155923,2.7639358,1.5006204)"
       ns7:version="1.10.2"
       ns7:texconverter="pdflatex"
       ns7:pdfconverter="inkscape"
       ns7:text="$\\phi$"
       ns7:preamble="/home/mei/Documents/MagicalModality/mystyle.sty"
       ns7:scale="1.0"
       ns7:alignment="middle center"
       ns7:stroke-to-path="0"
       ns7:inkscapeversion="1.3.2"
       id="g12"
       ns7:jacobian_sqrt="0.0138889">
      <defs
         id="defs8">
        <g
           id="g8">
          <symbol
             overflow="visible"
             id="symbol7">
            <path
               style="stroke:none;stroke-width:0"
               d=""
               id="path7" />
          </symbol>
          <symbol
             overflow="visible"
             id="symbol8">
            <path
               style="stroke:none;stroke-width:0"
               d="M 1.6875,1.6875 C 1.65625,1.828125 1.640625,1.84375 1.640625,1.890625 c 0,0.21875 0.1875,0.28125 0.296875,0.28125 0.046875,0 0.265625,-0.03125 0.359375,-0.265625 C 2.328125,1.828125 2.375,1.5 2.65625,0.09375 c 0.078125,0 0.15625,0.015625 0.328125,0.015625 1.65625,0 3.1875,-1.5625 3.1875,-3.140625 0,-0.78125 -0.390625,-1.375 -1.140625,-1.375 -1.4375,0 -2.046875,1.9375 -2.640625,3.875 C 1.3125,-0.734375 0.75,-1.28125 0.75,-2 c 0,-0.28125 0.234375,-1.375 0.828125,-2.0625 0.09375,-0.09375 0.09375,-0.109375 0.09375,-0.140625 0,-0.03125 -0.03125,-0.09375 -0.125,-0.09375 -0.28125,0 -1.046875,1.453125 -1.046875,2.40625 0,0.9375 0.65625,1.65625 1.71875,1.90625 z m 1.390625,-2.15625 c -0.09375,0 -0.109375,0 -0.1875,-0.015625 -0.125,0 -0.125,0 -0.125,-0.03125 0,-0.015625 0.171875,-0.9375 0.1875,-1.078125 0.3125,-1.28125 1.09375,-2.234375 1.984375,-2.234375 0.6875,0 0.953125,0.53125 0.953125,1.015625 0,1.125 -1.28125,2.34375 -2.8125,2.34375 z m 0,0"
               id="path8" />
          </symbol>
        </g>
      </defs>
      <g
         id="g11"
         transform="translate(-69.444,-59.5568)">
        <g
           style="fill:#000000;fill-opacity:1"
           id="g10">
          <g
             transform="translate(68.944,63.963)"
             id="g9">
            <path
               style="stroke:none;stroke-width:0"
               d="M 1.6875,1.6875 C 1.65625,1.828125 1.640625,1.84375 1.640625,1.890625 c 0,0.21875 0.1875,0.28125 0.296875,0.28125 0.046875,0 0.265625,-0.03125 0.359375,-0.265625 C 2.328125,1.828125 2.375,1.5 2.65625,0.09375 c 0.078125,0 0.15625,0.015625 0.328125,0.015625 1.65625,0 3.1875,-1.5625 3.1875,-3.140625 0,-0.78125 -0.390625,-1.375 -1.140625,-1.375 -1.4375,0 -2.046875,1.9375 -2.640625,3.875 C 1.3125,-0.734375 0.75,-1.28125 0.75,-2 c 0,-0.28125 0.234375,-1.375 0.828125,-2.0625 0.09375,-0.09375 0.09375,-0.109375 0.09375,-0.140625 0,-0.03125 -0.03125,-0.09375 -0.125,-0.09375 -0.28125,0 -1.046875,1.453125 -1.046875,2.40625 0,0.9375 0.65625,1.65625 1.71875,1.90625 z m 1.390625,-2.15625 c -0.09375,0 -0.109375,0 -0.1875,-0.015625 -0.125,0 -0.125,0 -0.125,-0.03125 0,-0.015625 0.171875,-0.9375 0.1875,-1.078125 0.3125,-1.28125 1.09375,-2.234375 1.984375,-2.234375 0.6875,0 0.953125,0.53125 0.953125,1.015625 0,1.125 -1.28125,2.34375 -2.8125,2.34375 z m 0,0"
               id="path9" />
          </g>
        </g>
      </g>
    </g>
  </g>
</svg>
