<?xml version="1.0" encoding="UTF-8" standalone="no"?>
<!-- Created with Inkscape (http://www.inkscape.org/) -->

<svg
   width="3.5in"
   height="2.0in"
   viewBox="0 0 3.5 2.0"
   id="SVGRoot"
   version="1.1"
   inkscape:version="1.3.2 (1:1.3.2+202311252150+091e20ef0f)"
   sodipodi:docname="Tproof1.svg"
   xmlns:inkscape="http://www.inkscape.org/namespaces/inkscape"
   xmlns:sodipodi="http://sodipodi.sourceforge.net/DTD/sodipodi-0.dtd"
   xmlns="http://www.w3.org/2000/svg"
   xmlns:svg="http://www.w3.org/2000/svg"
   xmlns:ns7="http://www.iki.fi/pav/software/textext/">
  <sodipodi:namedview
     inkscape:document-units="in"
     inkscape:zoom="2.523222"
     inkscape:cx="144.45816"
     inkscape:cy="105.61893"
     id="namedview1"
     pagecolor="#ffffff"
     bordercolor="#666666"
     borderopacity="1.0"
     inkscape:showpageshadow="2"
     inkscape:pageopacity="0.0"
     inkscape:pagecheckerboard="0"
     inkscape:deskcolor="#d1d1d1"
     inkscape:window-width="1850"
     inkscape:window-height="1009"
     inkscape:window-x="0"
     inkscape:window-y="0"
     inkscape:window-maximized="1"
     inkscape:current-layer="layer1" />
  <defs
     id="defs1">
    <marker
       style="overflow:visible"
       id="DartArrow"
       refX="0"
       refY="0"
       orient="auto-start-reverse"
       inkscape:stockid="Dart arrow"
       markerWidth="1"
       markerHeight="1"
       viewBox="0 0 1 1"
       inkscape:isstock="true"
       inkscape:collect="always"
       preserveAspectRatio="xMidYMid">
      <path
         style="fill:context-stroke;fill-rule:evenodd;stroke:none"
         d="M 0,0 5,-5 -12.5,0 5,5 Z"
         transform="scale(-0.5)"
         id="path6" />
    </marker>
  </defs>
  <g
     inkscape:label="Layer 1"
     inkscape:groupmode="layer"
     id="layer1">
    <ellipse
       style="fill:none;stroke:#000000;stroke-width:0.00694445;stroke-linecap:round;stroke-linejoin:round"
       id="path1"
       cx="1.5037972"
       cy="0.93638706"
       rx="0.958"
       ry="0.75199997" />
    <ellipse
       style="fill:none;stroke:#000000;stroke-width:0.00694445;stroke-linecap:round;stroke-linejoin:round"
       id="path2"
       cx="2.9761565"
       cy="0.33338624"
       rx="0.39684293"
       ry="0.21371318" />
    <ellipse
       style="fill:none;stroke:#000000;stroke-width:0.00694445;stroke-linecap:round;stroke-linejoin:round"
       id="path3"
       cx="2.8367612"
       cy="1.5974987"
       rx="0.36834779"
       ry="0.17643733" />
    <path
       style="fill:none;stroke:#000000;stroke-width:0.00843897px;stroke-linecap:butt;stroke-linejoin:miter;stroke-opacity:1;marker-end:url(#DartArrow)"
       d="M 2.3869412,0.64865137 2.6267395,0.49978038"
       id="path4" />
    <path
       style="fill:none;stroke:#000000;stroke-width:0.00900607px;stroke-linecap:butt;stroke-linejoin:miter;stroke-opacity:1;marker-end:url(#DartArrow)"
       d="M 2.3076915,1.3386639 2.4756532,1.4851924"
       id="path5" />
    <g
       transform="matrix(0.02185852,0,0,0.02185852,0.91172429,0.85000392)"
       ns7:version="1.10.2"
       ns7:texconverter="pdflatex"
       ns7:pdfconverter="inkscape"
       ns7:text="$\\logicnot(\\logicbox \\phi \\rightarrow \\phi)$"
       ns7:preamble="/home/mei/Documents/MagicalModality/mystyle.sty"
       ns7:scale="1.0"
       ns7:alignment="middle center"
       ns7:stroke-to-path="0"
       id="g6788"
       ns7:jacobian_sqrt="0.0138889">
      <defs
         id="id-2fb3fb20-710b-4fe8-b1f0-e4787ed4f4bf">
        <g
           id="id-1378213a-cf54-49c6-a39f-10783ca51ffb">
          <symbol
             overflow="visible"
             id="id-086f5655-c51e-4d51-a27b-341141b26b44">
            <path
               style="stroke:none;stroke-width:0"
               d=""
               id="id-3f8a5d2b-c66d-4a51-92f8-8dc86ec48cb8" />
          </symbol>
          <symbol
             overflow="visible"
             id="id-539ab6ef-cadc-453d-a6af-371c2ff5a2e0">
            <path
               style="stroke:none;stroke-width:0"
               d="m 7.203125,-3.328125 c 0,-0.21875 -0.0625,-0.328125 -0.140625,-0.328125 -0.046875,0 -0.140625,0.078125 -0.140625,0.265625 -0.046875,0.953125 -0.703125,1.5 -1.40625,1.5 -0.625,0 -1.09375,-0.421875 -1.59375,-0.84375 -0.5,-0.46875 -1.015625,-0.921875 -1.703125,-0.921875 -1.078125,0 -1.671875,1.09375 -1.671875,2 0,0.328125 0.125,0.328125 0.140625,0.328125 0.109375,0 0.140625,-0.203125 0.140625,-0.234375 0.046875,-1.09375 0.78125,-1.53125 1.390625,-1.53125 0.625,0 1.109375,0.421875 1.59375,0.84375 0.515625,0.46875 1.03125,0.921875 1.703125,0.921875 1.09375,0 1.6875,-1.09375 1.6875,-2 z m 0,0"
               id="id-4faae112-08e9-492a-b08c-2ad837734bd4" />
          </symbol>
          <symbol
             overflow="visible"
             id="id-8ff26d02-cc08-4d7f-8fb3-c402f4139409">
            <path
               style="stroke:none;stroke-width:0"
               d="M 8.3125,-2.296875 C 7.765625,-1.875 7.5,-1.46875 7.421875,-1.328125 c -0.453125,0.6875 -0.53125,1.3125 -0.53125,1.3125 0,0.125 0.125,0.125 0.203125,0.125 C 7.25,0.109375 7.265625,0.09375 7.3125,-0.09375 7.53125,-1.0625 8.125,-1.90625 9.25,-2.359375 9.375,-2.40625 9.40625,-2.421875 9.40625,-2.5 c 0,-0.0625 -0.0625,-0.09375 -0.078125,-0.109375 C 8.875,-2.765625 7.671875,-3.265625 7.296875,-4.9375 7.265625,-5.0625 7.25,-5.09375 7.09375,-5.09375 c -0.078125,0 -0.203125,0 -0.203125,0.125 0,0.015625 0.09375,0.640625 0.5,1.3125 0.203125,0.296875 0.5,0.640625 0.921875,0.96875 H 0.90625 c -0.171875,0 -0.359375,0 -0.359375,0.1875 0,0.203125 0.1875,0.203125 0.359375,0.203125 z m 0,0"
               id="id-f68f390a-c31b-4b9d-a302-3a9122cee44e" />
          </symbol>
          <symbol
             overflow="visible"
             id="id-c0d4977c-2ae6-4966-8116-3e9cd2723f92">
            <path
               style="stroke:none;stroke-width:0"
               d=""
               id="id-d02ab348-f6be-4834-a983-1cae5f959044" />
          </symbol>
          <symbol
             overflow="visible"
             id="id-562bc443-74db-47dd-95b2-a9cc90a6cfbf">
            <path
               style="stroke:none;stroke-width:0"
               d="m 3.296875,2.390625 c 0,-0.03125 0,-0.046875 -0.171875,-0.21875 C 1.890625,0.921875 1.5625,-0.96875 1.5625,-2.5 c 0,-1.734375 0.375,-3.46875 1.609375,-4.703125 0.125,-0.125 0.125,-0.140625 0.125,-0.171875 0,-0.078125 -0.03125,-0.109375 -0.09375,-0.109375 -0.109375,0 -1,0.6875 -1.59375,1.953125 -0.5,1.09375 -0.625,2.203125 -0.625,3.03125 0,0.78125 0.109375,1.984375 0.65625,3.125 C 2.25,1.84375 3.09375,2.5 3.203125,2.5 c 0.0625,0 0.09375,-0.03125 0.09375,-0.109375 z m 0,0"
               id="id-b607e62b-b6ff-4958-b9d0-d582e2cb6d88" />
          </symbol>
          <symbol
             overflow="visible"
             id="id-7a007760-6e05-4d27-8d09-77ceaf88241c">
            <path
               style="stroke:none;stroke-width:0"
               d="m 2.875,-2.5 c 0,-0.765625 -0.109375,-1.96875 -0.65625,-3.109375 -0.59375,-1.21875 -1.453125,-1.875 -1.546875,-1.875 -0.0625,0 -0.109375,0.046875 -0.109375,0.109375 0,0.03125 0,0.046875 0.1875,0.234375 0.984375,0.984375 1.546875,2.5625 1.546875,4.640625 0,1.71875 -0.359375,3.46875 -1.59375,4.71875 C 0.5625,2.34375 0.5625,2.359375 0.5625,2.390625 0.5625,2.453125 0.609375,2.5 0.671875,2.5 0.765625,2.5 1.671875,1.8125 2.25,0.546875 2.765625,-0.546875 2.875,-1.65625 2.875,-2.5 Z m 0,0"
               id="id-349ef804-1ae8-408c-8b24-502889414e7e" />
          </symbol>
          <symbol
             overflow="visible"
             id="id-92c025e7-4498-498f-a18c-8a72d537bdff">
            <path
               style="stroke:none;stroke-width:0"
               d=""
               id="id-8b941875-d739-4fd3-8b3d-d9d6cd0c78b7" />
          </symbol>
          <symbol
             overflow="visible"
             id="id-0a033d87-0054-43f3-8700-ed9be9c79de1">
            <path
               style="stroke:none;stroke-width:0"
               d="m 7.1875,-6.5 c 0,-0.3125 -0.03125,-0.34375 -0.34375,-0.34375 h -5.9375 c -0.3125,0 -0.34375,0.03125 -0.34375,0.34375 v 6.140625 C 0.5625,-0.046875 0.59375,0 0.921875,0 h 5.90625 C 7.15625,0 7.1875,-0.03125 7.1875,-0.34375 Z M 0.953125,-6.453125 H 6.78125 V -0.40625 H 0.953125 Z m 0,0"
               id="id-be3f7082-70df-49df-93fd-d17d5da188bf" />
          </symbol>
          <symbol
             overflow="visible"
             id="id-78293054-172a-4ea6-9892-2e58bb3366de">
            <path
               style="stroke:none;stroke-width:0"
               d=""
               id="id-86318f72-2077-46df-a1f6-4eb8ec43d5e6" />
          </symbol>
          <symbol
             overflow="visible"
             id="id-48c9c611-62d0-4ff6-b263-7bd9ef80c6bb">
            <path
               style="stroke:none;stroke-width:0"
               d="M 1.6875,1.6875 C 1.65625,1.828125 1.640625,1.84375 1.640625,1.890625 c 0,0.21875 0.1875,0.28125 0.296875,0.28125 0.046875,0 0.265625,-0.03125 0.359375,-0.265625 C 2.328125,1.828125 2.375,1.5 2.65625,0.09375 c 0.078125,0 0.15625,0.015625 0.328125,0.015625 1.65625,0 3.1875,-1.5625 3.1875,-3.140625 0,-0.78125 -0.390625,-1.375 -1.140625,-1.375 -1.4375,0 -2.046875,1.9375 -2.640625,3.875 C 1.3125,-0.734375 0.75,-1.28125 0.75,-2 c 0,-0.28125 0.234375,-1.375 0.828125,-2.0625 0.09375,-0.09375 0.09375,-0.109375 0.09375,-0.140625 0,-0.03125 -0.03125,-0.09375 -0.125,-0.09375 -0.28125,0 -1.046875,1.453125 -1.046875,2.40625 0,0.9375 0.65625,1.65625 1.71875,1.90625 z m 1.390625,-2.15625 c -0.09375,0 -0.109375,0 -0.1875,-0.015625 -0.125,0 -0.125,0 -0.125,-0.03125 0,-0.015625 0.171875,-0.9375 0.1875,-1.078125 0.3125,-1.28125 1.09375,-2.234375 1.984375,-2.234375 0.6875,0 0.953125,0.53125 0.953125,1.015625 0,1.125 -1.28125,2.34375 -2.8125,2.34375 z m 0,0"
               id="id-30a57d39-e4e5-4b89-92d4-ab067436cc06" />
          </symbol>
        </g>
      </defs>
      <g
         id="id-24ff91d3-3838-4070-96c3-443ce7b096c4"
         transform="translate(-69.4909,-56.4786)">
        <g
           style="fill:#000000;fill-opacity:1"
           id="id-e1964285-5064-4455-b134-d7adfef4494c">
          <g
             transform="translate(68.944,63.963)"
             id="g1844">
            <path
               style="stroke:none;stroke-width:0"
               d="m 7.203125,-3.328125 c 0,-0.21875 -0.0625,-0.328125 -0.140625,-0.328125 -0.046875,0 -0.140625,0.078125 -0.140625,0.265625 -0.046875,0.953125 -0.703125,1.5 -1.40625,1.5 -0.625,0 -1.09375,-0.421875 -1.59375,-0.84375 -0.5,-0.46875 -1.015625,-0.921875 -1.703125,-0.921875 -1.078125,0 -1.671875,1.09375 -1.671875,2 0,0.328125 0.125,0.328125 0.140625,0.328125 0.109375,0 0.140625,-0.203125 0.140625,-0.234375 0.046875,-1.09375 0.78125,-1.53125 1.390625,-1.53125 0.625,0 1.109375,0.421875 1.59375,0.84375 0.515625,0.46875 1.03125,0.921875 1.703125,0.921875 1.09375,0 1.6875,-1.09375 1.6875,-2 z m 0,0"
               id="id-23edd0fd-888b-4af3-b0e0-af60044b0d93" />
          </g>
        </g>
        <g
           style="fill:#000000;fill-opacity:1"
           id="id-b8dc2a92-9e7d-4265-8430-243a882e17cd">
          <g
             transform="translate(76.693,63.963)"
             id="g8477">
            <path
               style="stroke:none;stroke-width:0"
               d="m 3.296875,2.390625 c 0,-0.03125 0,-0.046875 -0.171875,-0.21875 C 1.890625,0.921875 1.5625,-0.96875 1.5625,-2.5 c 0,-1.734375 0.375,-3.46875 1.609375,-4.703125 0.125,-0.125 0.125,-0.140625 0.125,-0.171875 0,-0.078125 -0.03125,-0.109375 -0.09375,-0.109375 -0.109375,0 -1,0.6875 -1.59375,1.953125 -0.5,1.09375 -0.625,2.203125 -0.625,3.03125 0,0.78125 0.109375,1.984375 0.65625,3.125 C 2.25,1.84375 3.09375,2.5 3.203125,2.5 c 0.0625,0 0.09375,-0.03125 0.09375,-0.109375 z m 0,0"
               id="id-49f501be-21ca-4199-a7ae-9b3bfe637138" />
          </g>
        </g>
        <g
           style="fill:#000000;fill-opacity:1"
           id="id-6e6ed7d3-d0cd-4a7d-8f3f-9ab186b4d642">
          <g
             transform="translate(80.567,63.963)"
             id="g5545">
            <path
               style="stroke:none;stroke-width:0"
               d="m 7.1875,-6.5 c 0,-0.3125 -0.03125,-0.34375 -0.34375,-0.34375 h -5.9375 c -0.3125,0 -0.34375,0.03125 -0.34375,0.34375 v 6.140625 C 0.5625,-0.046875 0.59375,0 0.921875,0 h 5.90625 C 7.15625,0 7.1875,-0.03125 7.1875,-0.34375 Z M 0.953125,-6.453125 H 6.78125 V -0.40625 H 0.953125 Z m 0,0"
               id="id-5c6c657c-82e6-45a1-9f46-c87796da0535" />
          </g>
        </g>
        <g
           style="fill:#000000;fill-opacity:1"
           id="id-6c7e6af7-f757-4b7a-ad3e-86d9caaf7df1">
          <g
             transform="translate(88.316,63.963)"
             id="g9157">
            <path
               style="stroke:none;stroke-width:0"
               d="M 1.6875,1.6875 C 1.65625,1.828125 1.640625,1.84375 1.640625,1.890625 c 0,0.21875 0.1875,0.28125 0.296875,0.28125 0.046875,0 0.265625,-0.03125 0.359375,-0.265625 C 2.328125,1.828125 2.375,1.5 2.65625,0.09375 c 0.078125,0 0.15625,0.015625 0.328125,0.015625 1.65625,0 3.1875,-1.5625 3.1875,-3.140625 0,-0.78125 -0.390625,-1.375 -1.140625,-1.375 -1.4375,0 -2.046875,1.9375 -2.640625,3.875 C 1.3125,-0.734375 0.75,-1.28125 0.75,-2 c 0,-0.28125 0.234375,-1.375 0.828125,-2.0625 0.09375,-0.09375 0.09375,-0.109375 0.09375,-0.140625 0,-0.03125 -0.03125,-0.09375 -0.125,-0.09375 -0.28125,0 -1.046875,1.453125 -1.046875,2.40625 0,0.9375 0.65625,1.65625 1.71875,1.90625 z m 1.390625,-2.15625 c -0.09375,0 -0.109375,0 -0.1875,-0.015625 -0.125,0 -0.125,0 -0.125,-0.03125 0,-0.015625 0.171875,-0.9375 0.1875,-1.078125 0.3125,-1.28125 1.09375,-2.234375 1.984375,-2.234375 0.6875,0 0.953125,0.53125 0.953125,1.015625 0,1.125 -1.28125,2.34375 -2.8125,2.34375 z m 0,0"
               id="id-191a83aa-30c2-465a-852e-cb99394a74f2" />
          </g>
        </g>
        <g
           style="fill:#000000;fill-opacity:1"
           id="id-24c68fca-8855-42a5-8181-1d99ca9e3cd9">
          <g
             transform="translate(97.6,63.963)"
             id="g9350">
            <path
               style="stroke:none;stroke-width:0"
               d="M 8.3125,-2.296875 C 7.765625,-1.875 7.5,-1.46875 7.421875,-1.328125 c -0.453125,0.6875 -0.53125,1.3125 -0.53125,1.3125 0,0.125 0.125,0.125 0.203125,0.125 C 7.25,0.109375 7.265625,0.09375 7.3125,-0.09375 7.53125,-1.0625 8.125,-1.90625 9.25,-2.359375 9.375,-2.40625 9.40625,-2.421875 9.40625,-2.5 c 0,-0.0625 -0.0625,-0.09375 -0.078125,-0.109375 C 8.875,-2.765625 7.671875,-3.265625 7.296875,-4.9375 7.265625,-5.0625 7.25,-5.09375 7.09375,-5.09375 c -0.078125,0 -0.203125,0 -0.203125,0.125 0,0.015625 0.09375,0.640625 0.5,1.3125 0.203125,0.296875 0.5,0.640625 0.921875,0.96875 H 0.90625 c -0.171875,0 -0.359375,0 -0.359375,0.1875 0,0.203125 0.1875,0.203125 0.359375,0.203125 z m 0,0"
               id="id-8241f05e-5077-47fd-9df0-0d0197798728" />
          </g>
        </g>
        <g
           style="fill:#000000;fill-opacity:1"
           id="id-15d4acdb-1c53-4b07-a21a-ae442c3f9bc9">
          <g
             transform="translate(110.33,63.963)"
             id="g4561">
            <path
               style="stroke:none;stroke-width:0"
               d="M 1.6875,1.6875 C 1.65625,1.828125 1.640625,1.84375 1.640625,1.890625 c 0,0.21875 0.1875,0.28125 0.296875,0.28125 0.046875,0 0.265625,-0.03125 0.359375,-0.265625 C 2.328125,1.828125 2.375,1.5 2.65625,0.09375 c 0.078125,0 0.15625,0.015625 0.328125,0.015625 1.65625,0 3.1875,-1.5625 3.1875,-3.140625 0,-0.78125 -0.390625,-1.375 -1.140625,-1.375 -1.4375,0 -2.046875,1.9375 -2.640625,3.875 C 1.3125,-0.734375 0.75,-1.28125 0.75,-2 c 0,-0.28125 0.234375,-1.375 0.828125,-2.0625 0.09375,-0.09375 0.09375,-0.109375 0.09375,-0.140625 0,-0.03125 -0.03125,-0.09375 -0.125,-0.09375 -0.28125,0 -1.046875,1.453125 -1.046875,2.40625 0,0.9375 0.65625,1.65625 1.71875,1.90625 z m 1.390625,-2.15625 c -0.09375,0 -0.109375,0 -0.1875,-0.015625 -0.125,0 -0.125,0 -0.125,-0.03125 0,-0.015625 0.171875,-0.9375 0.1875,-1.078125 0.3125,-1.28125 1.09375,-2.234375 1.984375,-2.234375 0.6875,0 0.953125,0.53125 0.953125,1.015625 0,1.125 -1.28125,2.34375 -2.8125,2.34375 z m 0,0"
               id="id-494da932-dd25-4cc8-b982-f48d27963240" />
          </g>
        </g>
        <g
           style="fill:#000000;fill-opacity:1"
           id="id-9a6e4878-7bc0-45c4-956a-d94d1c32eb76">
          <g
             transform="translate(116.848,63.963)"
             id="g1743">
            <path
               style="stroke:none;stroke-width:0"
               d="m 2.875,-2.5 c 0,-0.765625 -0.109375,-1.96875 -0.65625,-3.109375 -0.59375,-1.21875 -1.453125,-1.875 -1.546875,-1.875 -0.0625,0 -0.109375,0.046875 -0.109375,0.109375 0,0.03125 0,0.046875 0.1875,0.234375 0.984375,0.984375 1.546875,2.5625 1.546875,4.640625 0,1.71875 -0.359375,3.46875 -1.59375,4.71875 C 0.5625,2.34375 0.5625,2.359375 0.5625,2.390625 0.5625,2.453125 0.609375,2.5 0.671875,2.5 0.765625,2.5 1.671875,1.8125 2.25,0.546875 2.765625,-0.546875 2.875,-1.65625 2.875,-2.5 Z m 0,0"
               id="id-17132da5-5fb3-474a-a9e1-04b6e5ce6885" />
          </g>
        </g>
      </g>
    </g>
  </g>
</svg>
